<svg xmlns="http://www.w3.org/2000/svg" data-name="Layer 1" viewBox="0 0 700 550"><path d="M383.2088 214.48581a40.97389 40.97389 0 01-4.6974-6.92388 24.358 24.358 0 01-2.84047-8.03657.75007.75007 0 01.09851-.48921l.01325-.02214a49.31675 49.31675 0 014.14017-5.90635 39.94748 39.94748 0 015.01579-5.19127 22.51408 22.51408 0 016.14283-3.869 11.0094 11.0094 0 017.11285-.60062 12.2953 12.2953 0 00-6.68428 1.53288 24.22855 24.22855 0 00-2.89659 1.8584c-.917.69649-1.783 1.46081-2.6335 2.24185a51.57909 51.57909 0 00-4.69027 5.1345 64.35828 64.35828 0 00-4.07416 5.64844l.1117-.51112a27.56984 27.56984 0 002.21718 7.71529c.52419 1.26461 1.123 2.5026 1.72944 3.742C381.89585 212.04022 382.52762 213.273 383.2088 214.48581zM443.48879 166.23063L441.54 179.36117l-.06754-.00965a25.52189 25.52189 0 00-1.669 4.66931c-.23154.78151-.36662 1.58234-.55958 2.37328l-.41485 2.3926a44.96068 44.96068 0 00-.44381 4.84313 25.2044 25.2044 0 00.23159 4.94937l.06754.00965-2.50842 16.94133-19.97063-2.9619c1.05161-1.24458 2.875-2.67241 2.88463-4.81416 0 0 5.95264-4.61161 3.71438-9.14595 0 0 13.854-1.34116 14.57758-6.22268.72357-4.88177-16.57465-.38605-16.57465-.38605s-11.529 3.95563-16.35277 2.30592c-1.28315-.43434-2.5759-.579-2.62413-2.40226l.31833-2.18037 1.37-9.24252 2.93286-19.7487z"/><path d="M450.42545,180.68278l-.46313,3.12583-.07713-.00966a9.98319,9.98319,0,0,0-1.37,2.74c-.19291.46306-.27976.94545-.42444,1.40851-.10617.48239-.18331.95511-.27016,1.43749a16.30374,16.30374,0,0,0-.164,2.91361,10.24,10.24,0,0,0,.52095,3.0196l.06754.00989v.00943l-.67534,4.57321-8.80831-1.31219,1.49538-9.59936,1.36035-9.61891-.0772-.01908Z"/><path d="M455.30716,189.935a16.06354,16.06354,0,0,1-2.00673,6.14542l-4.97816-.733-.0772-.00989v-.00943l1.71725-11.51946.06755.00965,4.97821.74289A15.8481,15.8481,0,0,1,455.30716,189.935Z"/><rect width="8.811" height="4.453" x="424.96" y="159.656" transform="rotate(8.441 429.365 161.883)"/><rect width="4.405" height="4.453" x="441.352" y="169.151" transform="rotate(8.441 443.555 171.378)"/><path d="M422.492 143.9a17.584 17.584 0 01.8679 3.04032 28.87441 28.87441 0 01.46828 3.08014 28.47412 28.47412 0 01.15024 3.11181 17.38784 17.38784 0 01-.25364 3.152 17.38666 17.38666 0 01-.87008-3.04009 28.47183 28.47183 0 01-.4661-3.08037 28.85755 28.85755 0 01-.14813-3.11193A17.5781 17.5781 0 01422.492 143.9zM430.63329 142.11533a25.24365 25.24365 0 01.00486 3.79924c-.06966 1.25589-.223 2.49929-.39262 3.74034-.19635 1.23693-.41066 2.47139-.70829 3.69336a24.95868 24.95868 0 01-1.11006 3.63376 24.96058 24.96058 0 01-.007-3.79946c.07-1.25589.22338-2.4993.39473-3.74.19809-1.23681.4124-2.47114.71045-3.69312A25.24167 25.24167 0 01430.63329 142.11533zM433.75546 156.16118a13.53817 13.53817 0 01.55343-2.71081 21.91252 21.91252 0 01.9224-2.55217 21.61065 21.61065 0 011.216-2.42593 13.39066 13.39066 0 011.58886-2.26564 13.3906 13.3906 0 01-.55146 2.71175 21.62071 21.62071 0 01-.92434 2.55135 21.926 21.926 0 01-1.218 2.42511A13.53251 13.53251 0 01433.75546 156.16118zM473.49962 184.86163a18.42187 18.42187 0 01-3.136.80648 30.341 30.341 0 01-3.167.40607 29.93157 29.93157 0 01-3.19163.08739 18.2181 18.2181 0 01-3.22287-.31739 18.228 18.228 0 013.1359-.8086 29.92778 29.92778 0 013.16713-.40383 30.3107 30.3107 0 013.19178-.08527A18.43358 18.43358 0 01473.49962 184.86163zM475.31927 192.822a26.63992 26.63992 0 01-3.903-.047c-1.28975-.08692-2.56631-.25733-3.84031-.44387-1.26978-.2134-2.53674-.4447-3.79054-.75914a26.33619 26.33619 0 01-3.72716-1.16026 26.33613 26.33613 0 013.90334.04475c1.28969.08727 2.56625.25768 3.84.44611 1.26949.215 2.53645.44634 3.79019.76126A26.621 26.621 0 01475.31927 192.822zM460.89267 195.61536a14.17028 14.17028 0 012.7737.56848 22.97913 22.97913 0 012.61651.938 22.68547 22.68547 0 012.49146 1.2321 14.01032 14.01032 0 012.33257 1.60566 14.00176 14.00176 0 01-2.77456-.56647 22.66834 22.66834 0 01-2.61568-.94 22.98067 22.98067 0 01-2.49058-1.2341A14.154 14.154 0 01460.89267 195.61536zM378.40953 206.38a13.70876 13.70876 0 003.41065-3.06341 12.8486 12.8486 0 001.23157-1.90292c.348-.65715.63319-1.36824.95817-2.09063 1.26973-2.85991 2.50465-5.7502 4.03954-8.54038a23.50136 23.50136 0 012.71805-4.03618 19.23194 19.23194 0 013.66568-3.27187 24.6001 24.6001 0 014.24464-2.38812 24.081 24.081 0 014.63409-1.55855l.01131-.0026a.96471.96471 0 011.14943.73488.97882.97882 0 01.00989.363c-.50264 3.074-1.10132 6.13365-1.64806 9.20106l-.00725.04052-.00812.03438a5.796 5.796 0 00-.32893 2.49577 1.168 1.168 0 00.53067.79706 5.348 5.348 0 001.187.51159c.47844.18348.87049.27346 1.30671.40324.45264.04781.89451.15286 1.35941.158a17.21665 17.21665 0 002.793-.06076 49.0657 49.0657 0 0011.00535-2.59728l.02331-.00731.00719-.00188a78.10472 78.10472 0 018.51052-1.86852 28.79208 28.79208 0 014.41876-.38794 9.91523 9.91523 0 012.34349.25391 3.96973 3.96973 0 011.24935.54787 2.32689 2.32689 0 01.98531 1.327 3.43791 3.43791 0 01-.63907 2.8102 7.00222 7.00222 0 01-1.82519 1.71307 16.99814 16.99814 0 01-4.15919 1.92082 46.777 46.777 0 01-8.67063 1.84944l.92884-1.669a6.47788 6.47788 0 01.627 3.20026 7.95594 7.95594 0 01-.90011 2.97885 12.37948 12.37948 0 01-1.6586 2.4178 16.04348 16.04348 0 01-2.07445 2.0294l.47379-.961a5.43294 5.43294 0 01-.99745 3.02219 15.79892 15.79892 0 01-1.77136 2.06779 9.73182 9.73182 0 00-.72193.8258 1.4289 1.4289 0 00-.1664.28429.30372.30372 0 00-.022.07161l-.03609.26851a9.565 9.565 0 01-.5819 2.75485 10.04368 10.04368 0 01-3.66292 4.22226q-.55194.378-1.11456.72946c-.40489.22447-.70726.42892-1.19583.668a6.02735 6.02735 0 01-1.45274.41007c-.446.07537-.88286.13073-1.31583.17689-1.72544.17854-3.41666.22188-5.10306.25744l-2.51354.074-.62118.03062a4.38239 4.38239 0 00-.52319.08974c-.38363.082-.78746.192-1.18493.3055-3.18707.957-6.42872 1.97946-9.53753 3.19813l-.01278.00519a.11391.11391 0 01-.09769-.20516c1.48907-.84417 3.03444-1.50815 4.57828-2.20228 1.54895-.68023 3.09885-1.34822 4.70735-1.92246.40335-.1458.80412-.28689 1.23645-.412a5.38269 5.38269 0 01.71256-.16676l.63737-.07608 2.528-.25155c1.67486-.167 3.3493-.30738 4.96868-.53091.4023-.06029.79842-.12836 1.17993-.20963a4.4144 4.4144 0 00.96359-.30172c.26215-.1392.6588-.41149.98131-.60957.32857-.2273.6535-.45907.9703-.69578a7.97081 7.97081 0 002.77022-3.39411 8.356 8.356 0 00.37674-2.18721l.041-.358a2.62469 2.62469 0 01.13343-.53915 3.64654 3.64654 0 01.43292-.82368 11.32268 11.32268 0 01.91059-1.09925c1.19088-1.24129 2.07586-2.36057 2.05849-3.48809a1.171 1.171 0 01.43291-.92826l.041-.033a13.85813 13.85813 0 001.72278-1.68434A9.97675 9.97675 0 00421.416 203.152a6.11291 6.11291 0 00.68-2.06285 4.12809 4.12809 0 00-.33258-1.96721l-.02662-.0636a1.16237 1.16237 0 01.62323-1.5211 1.19913 1.19913 0 01.33241-.08433 44.70015 44.70015 0 008.254-1.55431 16.91553 16.91553 0 003.72457-1.56515 5.15812 5.15812 0 001.37118-1.15956 1.76246 1.76246 0 00.43334-1.23563c.00647-.22612-.39076-.522-.97284-.70379a8.34084 8.34084 0 00-1.92841-.32551 27.43974 27.43974 0 00-4.20312.10481 68.9516 68.9516 0 00-8.45947 1.38756l.03009-.009c-1.83714.57377-3.67758 1.0691-5.54068 1.5138a50.74258 50.74258 0 01-5.65857 1.03448 21.07765 21.07765 0 01-2.90478.16747c-.48827.0139-.98567-.07608-1.47988-.11164-.48327-.11306-1.02695-.20963-1.44691-.343a6.21923 6.21923 0 01-1.462-.53 2.33636 2.33636 0 01-1.1138-1.43819 6.82912 6.82912 0 01.14291-3.139l-.01531.07466c.36656-3.09426.68118-6.19606 1.09178-9.2835l1.17051 1.09525a28.46417 28.46417 0 00-8.152 3.69348 17.96194 17.96194 0 00-3.372 2.89429 21.681 21.681 0 00-2.64192 3.64166c-1.6026 2.62389-3.051 5.39217-4.48718 8.1694a13.42414 13.42414 0 01-6.5542 6.74959.11453.11453 0 01-.10823-.20115z"/><path d="M422.88686 199.56941l-8.89575-.204 8.73052-1.71848a.97044.97044 0 11.37491 1.90432A1.00926 1.00926 0 01422.88686 199.56941zM379.467 208.082c-2.49877-3.11617-3.28023-10.88234-3.28023-10.88234-7.419 2.21877-25.91356 20.93534-33.11072 14.35558-12.7541-11.67374-25.904-30.23557-31.268-36.38123-3.27057-3.73375-6.07806-2.0261-7.77594-.1253a8.40025 8.40025 0 00-1.93919 4.24487c-3.10663 18.62965-23.28954-15.05042-23.28954-15.05042-47.15758 39.62294-44.59139 84.60014-44.15729 97.35453a37.567 37.567 0 001.58234 10.25533c.19291-.27016.30868-.41478.30868-.41478a73.14607 73.14607 0 0037.74158 19.8163c1.1095-1.03236 14.54872-6.39651 30.78566-10.77658a106.8248 106.8248 0 005.50877-20.29868q-6.7872-4.70324-13.22688-9.84032c-4.32224-3.396-8.52849-6.93683-12.66736-10.5547-4.10991-3.65649-8.15222-7.39-11.97276-11.37461-1.91022-1.98724-3.76261-4.03265-5.47992-6.20337A39.76121 39.76121 0 01264.824 218.82a7.6429 7.6429 0 01-1.46646-3.82043 4.76 4.76 0 00.73323 1.85227 15.17891 15.17891 0 001.14813 1.67868 40.46989 40.46989 0 002.70127 3.05823c1.862 1.98747 3.83986 3.87837 5.82721 5.75019 3.99414 3.73352 8.0752 7.38036 12.185 10.99822l12.349 10.8536q6.19365 5.41232 12.27177 10.98857c13.30414 8.81808 21.67835 9.561 21.67835 9.561 16.015.63666 41.90931-28.66311 41.90931-28.66311l13.02432-12.1851C389.626 226.45115 381.96574 211.1984 379.467 208.082zm-114.45-12.81187a21.53972 21.53972 0 00-2.25751 3.92642 23.734 23.734 0 00-1.51475 4.28374 37.86807 37.86807 0 00-.849 4.65023 11.18264 11.18264 0 01-.62712-4.88177 13.68658 13.68658 0 011.22527-4.85279 13.32975 13.32975 0 012.875-4.10991 12.24172 12.24172 0 014.10025-2.7207C266.92724 192.85822 265.87568 193.98692 265.017 195.27013zm108.21762 15.301c-1.76554 1.28322-3.5021 2.59516-5.28689 3.8494-3.56964 2.48917-7.19717 4.93006-10.9308 7.18745-3.724 2.26729-7.5155 4.44767-11.40352 6.43514-1.95845.98408-3.9266 1.94885-5.92367 2.846a65.457 65.457 0 01-6.15526 2.4602l-.55941.1929-.42455-.45341c-3.84941-4.13888-7.69892-8.27775-11.59649-12.36834-1.92953-2.0645-3.90723-4.08094-5.87539-6.107-1.94884-2.05483-3.95562-4.04231-5.943-6.05851-1.97769-2.00679-4.02311-3.95563-6.02978-5.9431-2.04529-1.94885-4.10024-3.8878-6.18417-5.78859q-3.1257-2.87981-6.40593-5.5474c-1.10962-.86819-2.219-1.74628-3.37668-2.55653a18.39 18.39 0 00-3.62752-2.16106 18.43087 18.43087 0 013.7818 1.93919c1.206.74288 2.354 1.58211 3.51176 2.40225 2.27683 1.68834 4.51515 3.44428 6.68587 5.25792 4.36075 3.63718 8.54768 7.46727 12.64793 11.37461q6.16485 5.861 12.07887 11.963c3.83974 3.87837 7.55418 7.87262 11.29747 11.83767a113.63226 113.63226 0 0011.25878-4.94912c3.86872-1.91988 7.67955-3.9846 11.4421-6.12635l2.82675-1.62074 2.79784-1.669c1.87165-1.08065 3.70466-2.248 5.55705-3.37668l5.52809-3.46359c1.81376-1.1963 3.62752-2.38294 5.47019-3.55027Q375.83472 208.603 373.23464 210.57116zM373.82313 425.23126c-3.59855-2.46-8.31627-5.75962-12.8217-8.94339h-.00966l-3.56964 1.19654c-1.15773.41478-2.3154.80059-3.40559 1.30229a19.03481 19.03481 0 00-3.16445 1.669 13.96776 13.96776 0 00-2.72064 2.44088 6.8695 6.8695 0 011.96815-3.367 11.59521 11.59521 0 013.30914-2.14175 15.50035 15.50035 0 013.73363-1.05168 12.87375 12.87375 0 013.8494-.04829c-2.69167-1.90055-5.3062-3.75283-7.56378-5.36414-2.28648 1.08065-4.573 1.87182-6.78226 2.80761a26.35193 26.35193 0 00-3.19337 1.53383 5.25336 5.25336 0 00-2.44088 2.44112 3.05671 3.05671 0 01.44381-1.9008 6.25291 6.25291 0 011.29281-1.50509 12.56727 12.56727 0 013.30914-1.96792 20.00857 20.00857 0 013.61786-1.09031 15.23647 15.23647 0 013.75289-.31844c-4.20636-2.981-7.1971-5.13238-7.1971-5.13238-.63678.135-1.25418.16393-1.87165.27016-.6078.106-1.21561.16394-1.8041.2989-.29908.0676-.58849.12554-.88763.17383l-.86825.23153a17.29745 17.29745 0 00-1.70765.51135 21.348 21.348 0 00-3.28017 1.42784 25.38164 25.38164 0 00-3.13548 1.94884 8.4972 8.4972 0 012.48905-2.94258 12.06512 12.06512 0 013.425-1.87158 12.25311 12.25311 0 013.8494-.656 10.7326 10.7326 0 013.79152.60769s.55958-9.76353-5.99121-8.30673a6.52348 6.52348 0 00-3.48279 2.13233c-1.8909 2.17072-6.63758 6.47353-13.39093 4.544a10.6909 10.6909 0 01-6.81118-6.02035c-1.23492-2.817-3.56-6.50227-7.18756-6.14543-5.79825.5693-4.93959 10.55447-4.93959 10.55447s-.67529 5.95275-3.97483 9.03995a10.714 10.714 0 00-3.65637 9.30023c.63665 4.36075 3.92653 8.69254 15.06949 7.29368 0 0 7.79538-1.47612 24.61115 6.36754 16.82556 7.84342 40.15356 14.6354 43.7328 1.13835a3.19271 3.19271 0 00-1.67869-3.19343 3.35378 3.35378 0 00-1.85233-.15427 5.28238 5.28238 0 00-1.79444.56906 6.05324 6.05324 0 00-2.1225 1.82353c-.20262.25085-.40518.54975-.63678.79094a11.09213 11.09213 0 01-3.24159 2.49883 16.47684 16.47684 0 01-7.93034 1.58234 31.45408 31.45408 0 01-7.93039-1.4568h-.01931l-.04823-.01932c-4.37035-1.79456-8.789-3.52129-13.23654-5.10364-2.22861-.79117-4.46692-1.54372-6.72444-2.20935a28.70515 28.70515 0 00-6.79186-1.34092 33.04354 33.04354 0 01-7.1394-1.26389 69.48749 69.48749 0 01-6.82083-2.20935 50.80818 50.80818 0 01-6.5217-2.96189 26.181 26.181 0 01-3.03915-1.90056 11.0599 11.0599 0 01-1.36989-1.148 7.10394 7.10394 0 01-1.13836-1.37954 10.02392 10.02392 0 002.6723 2.30568 25.99752 25.99752 0 003.10663 1.67868 66.47829 66.47829 0 006.57964 2.58574 70.61588 70.61588 0 006.80152 1.91964 38.18952 38.18952 0 006.89809 1.03236c.55952.01931 1.24458.05794 1.85239.11588.59815.106 1.206.1736 1.80411.2989l1.76547.39571 1.74628.46307c2.29615.66563 4.56332 1.40851 6.82084 2.19q6.72926 2.41662 13.29448 5.2386a32.363 32.363 0 007.49624 1.54372 15.39245 15.39245 0 007.46726-1.18664 10.36356 10.36356 0 003.06795-2.19c.23153-.23154.41484-.47273.64637-.72358a7.50836 7.50836 0 01.72358-.74288 6.31456 6.31456 0 011.727-1.119 5.74671 5.74671 0 011.98742-.50169 3.84936 3.84936 0 012.026.29889 2.54768 2.54768 0 011.341 1.50509 4.56141 4.56141 0 01.21222 1.96816S383.55763 431.869 373.82313 425.23126zm-48.10308-7.05249c-1.10963 1.94885-6.51216 3.30932-9.19424-.048-3.10651-3.90734-6.26131-5.14227-5.15193-7.08145 1.11916-1.93919 5.22907-1.91987 9.19424.04828C324.5334 413.07537 326.83909 416.23982 325.72005 418.17877z"/><path d="M337.66372 391.71535l-.47273 3.67581c-.16393 1.3892-.3665 2.76875-.4341 4.22579a10.45318 10.45318 0 01-1.06121-4.25476 21.59571 21.59571 0 01.05782-3.86872C336.39994 391.57073 337.03671 391.64775 337.66372 391.71535zM315.7443 388.63781c-.1736.7622-.36662 1.51475-.60781 2.267a16.32527 16.32527 0 01-1.26378 2.99087 13.27865 13.27865 0 01-.23153-3.24148 20.29259 20.29259 0 01.23153-2.30592C314.49005 388.4449 315.10764 388.54147 315.7443 388.63781zM279.08325 430.56644a5.61157 5.61157 0 00-3.98449-2.60482c-1.63039-.21222-3.38621-.24119-5.07455-.46307q-2.547-.30384-5.07467-.83946a30.98178 30.98178 0 01-9.68627-3.6466 15.7 15.7 0 01-2.769-2.17072c6.57976 9.25194 16.15027 15.73513 24.65944 13.62235.00965 0 .01931-.00966.029-.00966a4.52731 4.52731 0 001.8909-1.58234A2.183 2.183 0 00279.08325 430.56644zm2.18037-7.805c-4.08093-5.12272-8.8951-5.10341-8.21981-9.43519.14474-.90683.28948-1.82354.4341-2.73036l-2.88464-2.3926c-.95511-.7622-1.90056-1.51475-2.904-2.17072a22.72732 22.72732 0 00-3.10651-1.727 17.80005 17.80005 0 00-3.5213-1.013 7.46982 7.46982 0 013.888-.11564 11.86553 11.86553 0 013.5889 1.59176 15.35689 15.35689 0 012.88463 2.58574 11.93642 11.93642 0 012.05484 3.23182c.492-3.09686.98408-6.12611 1.41829-8.74082-2.12255-1.36989-4.0038-2.88464-5.972-4.23521a23.75108 23.75108 0 00-3.00995-1.84286 6.13115 6.13115 0 00-3.38633-.78128 3.325 3.325 0 011.85227-.58861 6.35894 6.35894 0 011.9585.26051 12.20543 12.20543 0 013.44428 1.698 19.01691 19.01691 0 012.85567 2.47952 14.45157 14.45157 0 012.25751 3.00994c.79106-4.86222 1.37-8.33546 1.37-8.33546-.81049-.98408-1.50509-1.94885-2.33477-2.80762a19.19632 19.19632 0 00-2.56631-2.37328 20.00744 20.00744 0 00-2.92326-1.94884 34.49389 34.49389 0 00-3.28011-1.59177 8.75435 8.75435 0 013.75283.51135 11.39436 11.39436 0 015.9623 4.679 9.6948 9.6948 0 011.38932 3.53119s9.47393-4.24487 4.94913-8.8951a6.60249 6.60249 0 00-3.695-1.80423c-2.94246-.50169-9.29068-2.30568-10.71852-8.74058a9.70094 9.70094 0 012.40226-8.45158c2.055-2.36363 4.409-6.02978 2.32511-8.81785-3.32851-4.45709-12.32006 1.05168-12.32006 1.05168s-5.93332 2.30568-10.429 1.09973a12.7399 12.7399 0 00-10.51608 1.48577c-3.81077 2.62413-6.29982 7.39967.36674 15.803 0 0 5.14215 5.65338 5.84641 23.14445a38.84711 38.84711 0 004.93959 16.51688 11.896 11.896 0 01-.33765-1.312v-.0292l-.00965-.03839c-.40525-4.438-.90694-8.88568-1.56292-13.28483-.31844-2.19969-.68494-4.39938-1.15767-6.56045a22.46572 22.46572 0 00-2.0261-6.165 28.98028 28.98028 0 01-2.24786-6.47353 60.33037 60.33037 0 01-1.19629-6.66644 41.415 41.415 0 01-.3473-6.7437 23.14534 23.14534 0 01.328-3.367 8.31244 8.31244 0 011.16745-3.15479 8.40362 8.40362 0 00-.88763 3.19342 22.53267 22.53267 0 00-.10611 3.32839 52.5397 52.5397 0 00.70426 6.61816 59.14821 59.14821 0 001.43749 6.50273 32.05706 32.05706 0 002.325 6.11646l.4149.75254c.14474.27017.2605.54033.38593.81049.22187.54033.41478 1.09007.58849 1.6304.357 1.1.64643 2.19969.88763 3.29942.50169 2.20934.8875 4.42835 1.22527 6.657.656 4.42812 1.13835 8.85647 1.46646 13.32322l.00965.0676a10.4191 10.4191 0 001.88125 4.28373 14.71807 14.71807 0 003.56958 3.28977 29.61772 29.61772 0 009.23286 3.77214 91.96054 91.96054 0 0010.04311 1.669 6.05905 6.05905 0 014.14854 3.01018 2.60279 2.60279 0 01.29913 1.29264 2.36926 2.36926 0 01-.44387 1.24458 4.68481 4.68481 0 01-1.968 1.46646C278.22471 434.10728 287.59253 430.692 281.26362 422.76141zM254.72294 382.743c-2.36362.01932-6.25165-3.73351-4.37041-7.525 2.19-4.4187 1.82354-7.59281 4.19682-7.61212 2.36363-.029 4.32213 3.338 4.37041 7.52521C258.96793 379.30861 257.08657 382.71426 254.72294 382.743z"/><path d="M283.72382 380.42765l-1.99713.74289c-1.3892.53067-2.78806 1.00339-4.20636 1.64a12.04031 12.04031 0 013.56-2.99062c.70426-.415 1.41818-.81049 2.15141-1.15791zM278.16677 360.33153c-.9358.27017-1.88125.51136-2.83635.69484a17.22764 17.22764 0 01-3.41531.35684 15.50529 15.50529 0 012.94246-1.79456 24.13 24.13 0 012.79784-1.10939z"/><path d="M305.02837,280.34488a184.019,184.019,0,0,1,21.54515-5.20751c3.65343-.61146,7.33631-1.09031,11.04945-1.348a60.306,60.306,0,0,1,11.23682.12955,24.45712,24.45712,0,0,1,5.56712,1.45727,23.34226,23.34226,0,0,1,2.63461,1.22527,22.91864,22.91864,0,0,1,4.63286,3.52365,24.79888,24.79888,0,0,1,4.83872,7.1785,38.386,38.386,0,0,1,2.94665,10.98951,49.99841,49.99841,0,0,1,.14415,11.339l-.879-1.33668a15.638,15.638,0,0,1,5.26969,2.79537,17.0177,17.0177,0,0,1,3.76008,4.5539,23.50088,23.50088,0,0,1,2.15211,5.3705,26.538,26.538,0,0,1,.86572,5.69744l-.0063-.09163a46.59825,46.59825,0,0,1-.16411,11.25237,34.69765,34.69765,0,0,1-1.23558,5.52007,31.65773,31.65773,0,0,1-2.23361,5.20587,26.40443,26.40443,0,0,1-7.42457,8.42755,26.805,26.805,0,0,1-10.1739,4.671l.36679-.39076c-.58719,5.1663-1.19312,10.33047-1.7242,15.50289l-1.64564,15.51161-.02974.28029-.2419.11706a6.36071,6.36071,0,0,1-1.9761.49275c-.63749.07466-1.26885.1147-1.89679.13237-1.25654.03886-2.50454.01955-3.74824-.03039-2.48852-.09327-4.96255-.28877-7.43317-.50923-4.93806-.42138-9.84585-1.1108-14.75624-1.73168-4.90708-.65856-9.83784-1.18263-14.72525-1.98511l-14.67168-2.33183-1.21161-.19244.22412-1.23893,1.332-7.36009,1.69575,1.42759a47.28986,47.28986,0,0,1-7.51991,1.91917c-2.51413.46212-5.01107.82438-7.56113,1.1115l-1.12681.127-.316-1.124-6.64053-23.62071,1.57093,1.07476a51.88935,51.88935,0,0,1-15.31776-.61641,44.93813,44.93813,0,0,1-14.31884-5.56671,45.78684,45.78684,0,0,1-11.60826-10.00377c-.81944-.9862-1.5999-2.00514-2.32959-3.0686-.36791-.52972-.71616-1.07382-1.05675-1.63981-.37956-.62795-.59131-1.15249-.8948-1.73356-.57036-1.13271-1.13318-2.26777-1.62121-3.43627l-.76268-1.73827-.68141-1.77313a61.31313,61.31313,0,0,1-3.7805-29.81349,60.19152,60.19152,0,0,1,3.73328-14.59371,55.41738,55.41738,0,0,1,7.23679-13.12489l.22211.16417a61.05754,61.05754,0,0,0-9.67261,27.72049,58.70489,58.70489,0,0,0,.49475,14.67756,63.11185,63.11185,0,0,0,3.92748,14.12405l.69154,1.70153.77174,1.66831c.49392,1.12211,1.05945,2.20747,1.63075,3.28906.28182.51748.56588,1.14094.84523,1.571.3115.49486.64408.99444.99656,1.48059.69884.97725,1.453,1.92341,2.24315,2.83753a43.83387,43.83387,0,0,0,38.94471,14.951l1.244-.1319.32717,1.2069,6.4223,23.6909-1.44255-.9968c2.44712-.24849,4.93134-.5806,7.36516-1.0015a45.07017,45.07017,0,0,0,7.09453-1.71778l2.11854-.74666-.42267,2.17449-1.42724,7.3422-.98726-1.43113,14.58323,2.60363c2.42734.46166,4.8694.80767,7.30734,1.19725l7.31617,1.15272c4.88164.75985,9.74833,1.597,14.65618,2.13209,2.44819.28053,4.90026.53632,7.35068.68989,1.225.08009,2.45019.12931,3.66556.12225.60781-.00165,1.21232-.02544,1.80417-.07985a5.1643,5.1643,0,0,0,1.61714-.35142l-.27145.39711,1.78891-15.49558c.61375-5.16347,1.15266-10.33495,1.7103-15.50454l.03409-.31562.33294-.07537a25.39008,25.39008,0,0,0,9.67538-4.65471,24.83624,24.83624,0,0,0,6.82919-8.23065,30.16547,30.16547,0,0,0,1.96174-4.99835,33.34663,33.34663,0,0,0,1.01158-5.285,44.68727,44.68727,0,0,0-.17041-10.79283l-.00042-.0033-.00588-.08856a24.60731,24.60731,0,0,0-.95046-5.14557,21.74687,21.74687,0,0,0-2.015-4.79438,14.62717,14.62717,0,0,0-3.27333-3.843,13.1774,13.1774,0,0,0-4.40475-2.31887l-.97636-.3413.09716-.99562a51.82758,51.82758,0,0,0-.12766-10.73654,36.00748,36.00748,0,0,0-2.67289-10.32057,23.98414,23.98414,0,0,0-2.62307-4.55885,22.74143,22.74143,0,0,0-1.67-2.01314,20.74157,20.74157,0,0,0-4.09206-3.22075,21.24239,21.24239,0,0,0-2.35786-1.14165,24.611,24.611,0,0,0-5.07655-1.45139,58.75855,58.75855,0,0,0-10.84424-.431c-3.65037.14675-7.30192.51277-10.93745,1.01305a219.15816,219.15816,0,0,0-21.67623,4.14665Z"/><path d="M251.94466 298.60986a34.64095 34.64095 0 008.31805-3.5578 15.919 15.919 0 003.331-2.79808 21.1161 21.1161 0 002.59739-3.74706 9.29545 9.29545 0 01-1.44561 4.60571 11.05388 11.05388 0 01-3.49171 3.49021 14.1254 14.1254 0 01-4.52149 1.8326A12.4281 12.4281 0 01251.94466 298.60986zM262.59451 298.60986a46.05182 46.05182 0 015.59522-4.065 45.51263 45.51263 0 016.08525-3.28646 45.53829 45.53829 0 01-5.59523 4.065A46.054 46.054 0 01262.59451 298.60986z"/><path d="M252.082,283.08978l-.559,13.31721c-.16713,4.43365-.33467,8.86589-.36093,13.27823-.02648,2.205.025,4.40786.17308,6.55809l.15341,1.58423c.10783.49628.16182.94616.30042,1.48106.29641,1.0856.56861,2.14623.88586,3.17447a15.96877,15.96877,0,0,0,2.64211,5.51383,6.29042,6.29042,0,0,0,4.92058,2.35562,16.18353,16.18353,0,0,0,6.05747-1.24776,41.02237,41.02237,0,0,0,5.8527-2.89218c3.84345-2.18085,7.61476-4.54447,11.37111-6.91834,3.75138-2.38554,7.50732-4.76906,11.31556-7.0784,3.81756-2.29049,7.66-4.57,11.70746-6.49968a56.38387,56.38387,0,0,1,12.7003-4.64175,18.069,18.069,0,0,1,7.02779-.35354,16.90283,16.90283,0,0,1,6.669,2.54476,16.19356,16.19356,0,0,1,5.02883,5.153,14.9568,14.9568,0,0,1,2.15971,6.94485,33.92354,33.92354,0,0,1-.036,3.47136c-.06883,1.1201-.11947,2.24268-.21285,3.3596q-.23979,3.35642-.63675,6.69093a252.19218,252.19218,0,0,1-12.6159,51.90944l-.26468-.07879c4.1832-17.2746,8.01424-34.62117,9.9543-52.16441.23512-2.19121.47183-4.38207.627-6.57611.09467-1.09666.14649-2.19344.217-3.29035.03862-1.08265.14712-2.24114.09312-3.18777a12.77658,12.77658,0,0,0-5.74872-10.06667,15.29963,15.29963,0,0,0-11.8453-2.20534,60.31578,60.31578,0,0,0-12.49158,3.86742,144.20814,144.20814,0,0,0-23.16109,12.95271l-5.52024,3.73529c-1.83113,1.26378-3.66175,2.52968-5.53972,3.74564a41.91417,41.91417,0,0,1-5.90266,3.35878,17.57608,17.57608,0,0,1-6.8328,1.76571,9.1786,9.1786,0,0,1-3.724-.73888,8.57816,8.57816,0,0,1-3.04694-2.32677,16.98926,16.98926,0,0,1-3.10838-6.40381c-.321-1.09985-.58427-2.1958-.85735-3.25714-.13344-.5415-.22754-1.19583-.33586-1.78844l-.14326-1.73392c-.10064-2.2846-.06643-4.52892.02766-6.7643a246.99917,246.99917,0,0,1,2.7849-26.57625Z"/><path d="M277.36687 357.42222q4.506-2.9533 8.72867-6.2738 4.2346-3.29953 8.245-6.85651c2.65915-2.38365 5.2699-4.81982 7.75576-7.3773 2.50867-2.53545 4.889-5.18973 7.21531-7.88735l2.37666-2.756-.80121 3.54921c-.91551 4.05549-1.901 8.09462-2.85368 12.14152l-2.968 12.11479q-1.51765 6.0495-3.1013 12.0837c-1.09349 4.01392-2.13959 8.03892-3.29749 12.03789.73158-4.09849 1.575-8.17071 2.371-12.25411q1.24548-6.1131 2.56718-12.2083l2.70042-12.17733c.93686-4.05043 1.8408-8.10864 2.81478-12.15047l1.57535.79317c-2.38367 2.71588-4.79778 5.40926-7.41149 7.90337-2.565 2.54181-5.27078 4.93606-8.05473 7.22773-2.77006 2.309-5.67226 4.45473-8.64073 6.49213A92.12733 92.12733 0 01277.36687 357.42222zM368.40583 309.47736c-.369 4.37983-.91695 8.72869-1.5279 13.06671-.59963 4.34-1.30536 8.66169-2.03161 12.97993-.7602 4.31223-1.54316 8.62058-2.43173 12.91079-.87723 4.29209-1.81891 8.57312-2.94087 12.823.36671-4.38019.91374-8.72928 1.5252-13.06731.60009-4.33991 1.30582-8.66156 2.03432-12.97933.76243-4.31188 1.54539-8.62034 2.43443-12.91032C366.34543 318.00879 367.28614 313.72764 368.40583 309.47736zM227.06451 299.92357q2.64906-.24148 5.29809-.386l.31383-.01755.06929.35566c.56257 2.88758 1.16019 5.776 1.79873 8.64484.6154 2.8751 1.31526 5.72759 2.0491 8.56311.755 2.83 1.55044 5.647 2.55219 8.37774.45984 1.3832 1.02962 2.71458 1.614 4.036l.95 1.93942 1.12 1.82354.29606.482-.344.33788a19.65737 19.65737 0 00-1.63493 1.84473 24.24991 24.24991 0 00-1.4303 2.04318 17.34554 17.34554 0 00-1.1243 2.23231 10.95339 10.95339 0 00-.63507 2.44277 9.51436 9.51436 0 01.23541-2.56725 14.18465 14.18465 0 01.85874-2.45926 18.20233 18.20233 0 011.25727-2.28695 19.90826 19.90826 0 011.56032-2.1255l-.04793.81955a30.65053 30.65053 0 01-4.3054-7.94953 68.18433 68.18433 0 01-2.6718-8.54014c-.73477-2.88381-1.31735-5.79907-1.799-8.72657-.46273-2.93257-.85029-5.86926-1.06512-8.83575l.38291.33788Q229.71356 300.16088 227.06451 299.92357zM320.20146 124.38663s6.3518-1.17212 3.09349-8.4014-21.05986-11.68586-39.69881-8.11288-13.982 15.48831-12.75727 20.82934 5.796 30.98674 10.85836 23.70136c0 0 3.96469-7.01051 3.95868-7.902s-3.9917-6.39506-3.1934-10.82562c.49785-2.763 3.79306-4.83215 6.41063-1.23873a9.99557 9.99557 0 011.81307 6.36466 65.29939 65.29939 0 01-.91454 7.87109c-1.25785 7.3786.3733 11.29041 1.96413 13.62742s15.863 16.33641 21.58382 12.103c0 0 8.309-12.66114 7.541-16.37074s-4.219.14732-5.998.75368-10.70234 3.84637-17.11826-4.49091c0 0-5.24753-6.9484-2.54844-12.13757s.06343-12.63067.99954-14.83613.99074-2.91907 4.07969-3.17764A48.72552 48.72552 0 01320.20146 124.38663z"/><path d="M320.20147 124.38661a17.43711 17.43711 0 013.1548 8.84623 16.18012 16.18012 0 01-.0313 2.41238l-.16239 2.30474c-.10923 1.53394-.22283 3.06777-.26672 4.58934-.0334.75726-.0589 1.52123-.02975 2.2382a3.34257 3.34257 0 00.08092.71109c.12743.19715.4052.50441.64245.78482a15.525 15.525 0 012.82591 3.95775 2.48825 2.48825 0 01.16994 1.53323 2.13316 2.13316 0 01-.90549 1.29228 5.117 5.117 0 01-1.22255.46778l-1.128.32834c-.38053.09881-.7634.19208-1.15672.27016-.19429.038-.40508.07314-.60543.09257a.39526.39526 0 00-.29.16723 2.17782 2.17782 0 00-.31482 1 6.64587 6.64587 0 00-.05329 1.15331 3.84033 3.84033 0 01-.05424-2.40614.92308.92308 0 01.61014-.50181c.18039-.04734.34614-.10352.52463-.16841.35188-.13014.70463-.2777 1.05543-.43115l1.05533-.45919a4.53627 4.53627 0 00.89865-.4567 1.00122 1.00122 0 00.33112-.60793 1.17679 1.17679 0 00-.184-.71757 16.99743 16.99743 0 00-2.79859-3.3802 7.90391 7.90391 0 01-.84464-.99456 2.0985 2.0985 0 01-.30385-.88422c-.03575-.23659-.05329-.44587-.06545-.65479-.04706-.82874-.03527-1.61356-.01112-2.40214.08037-1.5708.20157-3.12382.37025-4.6719l.2888-2.31534c.09415-.76962.17372-1.46929.19467-2.22042A23.17971 23.17971 0 00320.20147 124.38661zM315.78121 144.50043a1.3326 1.3326 0 000-2.6636 1.3326 1.3326 0 000 2.6636z"/><path d="M322.65444 141.39228a1.20111 1.20111 0 00-1.49761-1.12443c-.564-.1914-1.12808-.385-1.69032-.57153-1.64936-.55889-3.31922-1.04006-4.97521-1.555l-5.00614-1.40707c-3.34907-.90095-6.73247-1.6902-10.12769-2.40045a102.62939 102.62939 0 00-10.32627-1.667 102.80117 102.80117 0 009.78547 3.67809c3.304 1.08272 6.62987 2.07884 9.98144 2.9622l5.04469 1.26915c1.6943.37709 3.38209.798 5.0842 1.12249l.06367.01251c-1.43846 1.43118-2.75758 3.96173-2.42915 8.39762a2.22166 2.22166 0 00.68489 1.49316c.91629.83239 2.75114.98446 4.94734-6.9346A12.28277 12.28277 0 00322.65444 141.39228zM288.48955 147.59807a4.533 4.533 0 01-2.25689-.99279 5.02916 5.02916 0 01-1.48873-2.10547l.85346-.24473a4.36154 4.36154 0 00.94459 2.03175A4.31271 4.31271 0 00288.48955 147.59807zM280.58427 153.496a47.52638 47.52638 0 01-1.068 9.58805 31.50479 31.50479 0 01-1.35081 4.66048 14.083 14.083 0 01-1.05461 2.207 4.3433 4.3433 0 01-1.70893 1.72509 4.68237 4.68237 0 001.32308-1.92647 19.88448 19.88448 0 00.78515-2.23055c.44388-1.518.809-3.06576 1.13872-4.62255C279.3264 159.78423 279.88363 156.64086 280.58427 153.496z"/></svg>